
<svg xmlns="http://www.w3.org/2000/svg" version="1.1" xmlns:xlink="http://www.w3.org/1999/xlink" preserveAspectRatio="none" x="0px" y="0px" width="73.47px" height="100px" viewBox="0 0 73.47 100">
<defs>
<g id="Layer0_0_MEMBER_0_MEMBER_0_MEMBER_0_MEMBER_0_FILL">
<path fill="#EE3496" stroke="none" d="
M 32.5 0.45
L 0.4 0.45 0.4 45 32.5 45 32.5 0.45 Z"/>
</g>

<g id="Layer0_0_MEMBER_1_MEMBER_0_MEMBER_0_MEMBER_0_FILL">
<path fill="#9C9C9C" stroke="none" d="
M 32.95 0
L 0 0 0 45.45 32.95 45.45 32.95 0
M 0.85 0.9
L 32.05 0.9 32.05 44.6 0.85 44.6 0.85 0.9 Z"/>
</g>

<g id="Layer0_0_MEMBER_2_MEMBER_0_MEMBER_0_MEMBER_0_FILL">
<path fill="#FFFFFF" stroke="none" d="
M 21.85 21.9
L 10.5 21.9 10.5 23 21.85 23 21.85 21.9 Z"/>
</g>

<g id="Layer0_0_MEMBER_3_MEMBER_0_MEMBER_0_MEMBER_0_FILL">
<path fill="#FFFFFF" stroke="none" d="
M 19.55 30
Q 19.55 29.35 19.3 28.85 18.85 28.3 18.3 28.05 17.6 27.7 16.65 27.7 15.75 27.7 15.05 28 14.35 28.4 13.95 28.85 13.55 29.4 13.55 30.2 13.55 30.85 13.9 31.25 14.25 31.85 14.8 32.05
L 14.8 32.1
Q 14.1 32.45 13.7 33 13.25 33.6 13.25 34.3 13.25 34.9 13.55 35.5 13.9 36.05 14.7 36.45 15.4 36.75 16.55 36.75 17.45 36.75 18.3 36.5 18.9 36.2 19.5 35.5 19.9 34.95 19.9 34.1 19.9 33.7 19.7 33.1 19.35 32.6 19.05 32.35 18.7 32 18.3 31.95
L 18.3 31.85
Q 19 31.5 19.25 31.05 19.55 30.55 19.55 30
M 17.2 29.25
L 17.55 29.7 17.65 30.2
Q 17.6 30.6 17.3 30.85 17.05 31.15 16.75 31.25 16.2 31.1 15.8 30.8 15.5 30.6 15.5 30.1 15.5 29.6 15.75 29.35 15.95 29.15 16.55 29.05 16.8 29.05 17.2 29.25
M 15.65 33.3
Q 15.95 32.95 16.45 32.8 16.85 32.9 17.45 33.3 17.8 33.85 17.8 34.25 17.8 34.65 17.5 35.05 17.15 35.35 16.55 35.35 16.2 35.35 15.95 35.2
L 15.5 34.75
Q 15.3 34.35 15.3 34.1 15.3 33.65 15.65 33.3
M 16.05 17.25
L 18 17.25 18 8.45 16.3 8.45 13.95 9.5 14.3 11.05 16 10.25 16.05 10.25 16.05 17.25 Z"/>
</g>
</defs>

<g transform="matrix( 2.2215423583984375, 0, 0, 2.2211151123046875, 0,0) ">
<use xlink:href="#Layer0_0_MEMBER_0_MEMBER_0_MEMBER_0_MEMBER_0_FILL"/>
</g>

<g transform="matrix( 2.2215423583984375, 0, 0, 2.2211151123046875, 0,0) ">
<use xlink:href="#Layer0_0_MEMBER_1_MEMBER_0_MEMBER_0_MEMBER_0_FILL"/>
</g>

<g transform="matrix( 2.2215423583984375, 0, 0, 2.2211151123046875, 0,0) ">
<use xlink:href="#Layer0_0_MEMBER_2_MEMBER_0_MEMBER_0_MEMBER_0_FILL"/>
</g>

<g transform="matrix( 2.2215423583984375, 0, 0, 2.2211151123046875, 0,0) ">
<use xlink:href="#Layer0_0_MEMBER_3_MEMBER_0_MEMBER_0_MEMBER_0_FILL"/>
</g>
</svg>
