
<svg xmlns="http://www.w3.org/2000/svg" version="1.1" xmlns:xlink="http://www.w3.org/1999/xlink" preserveAspectRatio="none" x="0px" y="0px" width="26px" height="26px" viewBox="0 0 26 26">
<defs>
<g id="Layer0_0_FILL">
<path fill="#666666" stroke="none" d="
M 424.25 70.95
Q 389.2 36.8 344.1 18.4 297.4 -0.6 246.6 0 195.75 0.65 149.6 20.95 105 40.5 70.9 75.6 36.75 110.65 18.4 155.8 -0.65 202.5 0 253.35 0.65 304.15 20.9 350.35 40.45 394.9 75.5 429.05 110.55 463.15 155.7 481.55 202.4 500.6 253.3 499.95 304.1 499.3 350.3 479.05 394.85 459.5 429 424.45 463.1 389.35 481.45 344.3 500.45 297.6 499.75 246.75 499.1 195.85 478.85 149.65 459.3 105.05 424.25 70.95
M 274.2 83.35
Q 291.9 83.35 300.25 92.85 307.2 100.8 307.2 114.95 307.2 131.55 295.15 143.05 282.25 155.4 261.5 155.4 243.7 155.4 234.8 146.85 226.15 138.6 226.65 123.3 226.65 108.6 237.9 97.05 251.3 83.35 274.2 83.35
M 288.5 210.95
Q 291.2 224.55 284.5 248.85
L 261.7 335.35
Q 258.85 346.2 259.55 351.4 260.15 355.95 263.4 355.95 268.1 355.95 278.6 351.1 291.05 345.35 302.5 336.45
L 312.3 349.65
Q 284.55 377.25 251.85 393.25 225.25 406.3 209.1 406.3 194.15 406.3 189.1 395.2 182.8 381.35 191.2 349.4
L 211.1 267.25
Q 213.8 256.85 213.9 253.05 214 248.75 211.1 248.75 206.9 248.75 193.65 254.45 179.5 260.45 170 266.85
L 161.3 252.65
Q 191.2 227.75 225.15 211.5 256 196.75 273 196.75 285.65 196.75 288.5 210.95 Z"/>
</g>
</defs>

<g transform="matrix( 0.0500030517578125, 0, 0, 0.04998779296875, 0.55,0.5) ">
<use xlink:href="#Layer0_0_FILL"/>
</g>
</svg>
