
<svg xmlns="http://www.w3.org/2000/svg" version="1.1" xmlns:xlink="http://www.w3.org/1999/xlink" preserveAspectRatio="none" x="0px" y="0px" width="583px" height="101px" viewBox="0 0 583 101">
<defs>
<g id="Layer0_0_MEMBER_0_FILL">
<path fill="#FFFFFF" stroke="none" d="
M 851.85 330.7
L 851.85 229.4 267.95 229.4 267.95 330.7 851.85 330.7 Z"/>
</g>

<g id="Layer0_0_MEMBER_1_FILL">
<path fill="#A7A9AC" stroke="none" d="
M 545.35 274.75
Q 544.4 274.15 542.9 274.1 541.3 274.15 539.95 274.95 538.6 275.8 537.8 277.35 537 278.9 536.95 281.05 536.95 282.95 537.65 284.35 538.4 285.8 539.65 286.65 540.9 287.45 542.55 287.45 543.85 287.45 544.8 286.95 545.8 286.4 546.35 285.55
L 546.4 285.55 546.4 286.65
Q 546.4 288.1 545.9 288.95 545.45 289.8 544.6 290.25 543.75 290.65 542.65 290.6 541.45 290.6 540.45 290.3 539.45 290 538.8 289.65
L 538.1 292.15
Q 538.95 292.65 540.2 292.95 541.4 293.2 542.65 293.2 544.05 293.2 545.35 292.85 546.7 292.5 547.75 291.6 548.75 290.65 549.2 289.2 549.7 287.7 549.7 285.65
L 549.7 278.2
Q 549.7 276.85 549.7 275.95 549.75 275.05 549.8 274.4
L 546.9 274.4 546.75 276.15 546.7 276.15
Q 546.25 275.35 545.35 274.75
M 543.55 276.65
Q 544.6 276.65 545.3 277.25 546 277.85 546.25 278.8 546.3 279 546.35 279.2 546.35 279.45 546.35 279.7
L 546.35 281.8
Q 546.35 282.1 546.3 282.4 546.3 282.7 546.25 283 545.95 283.9 545.2 284.45 544.5 285 543.55 285 542.5 285 541.75 284.45 541.05 283.9 540.7 283 540.3 282.1 540.3 280.95 540.35 278.95 541.25 277.8 542.15 276.65 543.55 276.65
M 516.05 274.4
L 516.05 287.55 519.4 287.55 519.4 274.4 516.05 274.4
M 525.7 276.4
L 525.6 276.4 525.45 274.4 522.5 274.4
Q 522.6 275.25 522.6 276.25 522.65 277.2 522.65 278.3
L 522.65 287.55 526 287.55 526 279.85
Q 526 279.55 526 279.25 526.05 279 526.1 278.75 526.4 278 527.05 277.4 527.7 276.85 528.7 276.8 530.05 276.85 530.65 277.75 531.25 278.7 531.2 280.15
L 531.2 287.55 534.55 287.55 534.55 279.75
Q 534.5 277.7 533.85 276.45 533.15 275.2 532.1 274.65 531.05 274.1 529.85 274.1 528.75 274.15 527.95 274.45 527.1 274.85 526.55 275.35 525.95 275.85 525.7 276.4
M 506 274.1
Q 504.4 274.15 503.05 274.95 501.7 275.8 500.9 277.35 500.1 278.9 500.05 281.05 500.05 282.95 500.75 284.35 501.5 285.8 502.75 286.65 504 287.45 505.65 287.45 506.95 287.45 507.9 286.95 508.9 286.4 509.45 285.55
L 509.5 285.55 509.5 286.65
Q 509.5 288.1 509 288.95 508.55 289.8 507.7 290.25 506.85 290.65 505.75 290.6 504.55 290.6 503.55 290.3 502.55 290 501.9 289.65
L 501.2 292.15
Q 502.05 292.65 503.3 292.95 504.5 293.2 505.75 293.2 507.15 293.2 508.45 292.85 509.8 292.5 510.85 291.6 511.85 290.65 512.3 289.2 512.8 287.7 512.8 285.65
L 512.8 278.2
Q 512.8 276.85 512.8 275.95 512.85 275.05 512.9 274.4
L 510 274.4 509.85 276.15 509.8 276.15
Q 509.35 275.35 508.45 274.75 507.5 274.15 506 274.1
M 503.8 283
Q 503.4 282.1 503.4 280.95 503.45 278.95 504.35 277.8 505.25 276.65 506.65 276.65 507.7 276.65 508.4 277.25 509.1 277.85 509.35 278.8 509.4 279 509.45 279.2 509.45 279.45 509.45 279.7
L 509.45 281.8
Q 509.45 282.1 509.4 282.4 509.4 282.7 509.35 283 509.05 283.9 508.3 284.45 507.6 285 506.65 285 505.6 285 504.85 284.45 504.15 283.9 503.8 283
M 515.85 270.75
Q 515.85 271.5 516.35 272 516.85 272.5 517.7 272.5 518.55 272.5 519.05 272 519.55 271.5 519.6 270.75 519.55 269.95 519.05 269.45 518.55 268.95 517.7 268.9 516.85 268.95 516.35 269.45 515.85 269.95 515.85 270.75
M 632.2 274.4
L 628.85 274.4 628.85 287.55 632.2 287.55 632.2 274.4
M 647.1 277.35
Q 646.3 275.85 644.85 274.95 643.35 274.15 641.4 274.1 639.4 274.15 637.85 274.95 636.35 275.8 635.5 277.35 634.6 278.9 634.6 281.1 634.6 283.2 635.5 284.7 636.35 286.2 637.8 287 639.3 287.85 641.2 287.85 642.9 287.85 644.4 287.1 645.95 286.35 646.95 284.8 647.9 283.25 647.95 280.85 647.9 278.85 647.1 277.35
M 639.4 277.2
Q 640.15 276.55 641.3 276.55 642.45 276.55 643.15 277.25 643.85 277.9 644.2 278.9 644.5 279.9 644.5 280.95 644.5 282.25 644.1 283.3 643.7 284.3 642.95 284.85 642.25 285.45 641.3 285.45 640.25 285.45 639.55 284.85 638.8 284.25 638.4 283.25 638.05 282.3 638.05 281 638.05 279.9 638.35 278.85 638.7 277.85 639.4 277.2
M 616.1 274.3
Q 615.25 274.15 614.3 274.1 612 274.15 610.35 275.05 608.75 276 607.85 277.55 607 279.15 607 281.15 607 283.15 607.85 284.65 608.65 286.15 610.2 287 611.7 287.8 613.8 287.8 615.05 287.8 616 287.6 616.95 287.4 617.5 287.15
L 617.05 284.7
Q 616.55 284.9 615.9 285.05 615.3 285.2 614.4 285.2 613.25 285.2 612.4 284.7 611.45 284.2 610.95 283.25 610.4 282.3 610.4 280.95 610.4 279.75 610.85 278.8 611.35 277.85 612.25 277.3 613.15 276.75 614.4 276.7 615.3 276.75 615.9 276.85 616.55 277.05 616.95 277.25
L 617.55 274.75
Q 616.95 274.45 616.1 274.3
M 623.45 270.65
L 620.2 271.45 620.2 274.4 618.3 274.4 618.3 276.9 620.2 276.9 620.2 283.05
Q 620.2 284.35 620.45 285.25 620.7 286.15 621.25 286.75 621.7 287.25 622.45 287.5 623.15 287.8 624.1 287.8 624.9 287.8 625.5 287.7 626.1 287.65 626.5 287.5
L 626.45 284.95
Q 626.2 285 625.9 285.05 625.55 285.1 625.15 285.1 624.2 285.1 623.8 284.5 623.45 283.9 623.45 282.7
L 623.45 276.9 626.6 276.9 626.6 274.4 623.45 274.4 623.45 270.65
M 630.5 268.9
Q 629.65 268.95 629.15 269.45 628.65 269.95 628.65 270.75 628.65 271.5 629.15 272 629.65 272.5 630.5 272.5 631.35 272.5 631.85 272 632.35 271.5 632.4 270.75 632.35 269.95 631.85 269.45 631.35 268.95 630.5 268.9
M 604.15 276.95
Q 603.65 275.7 602.5 274.9 601.3 274.15 599.2 274.1 597.65 274.15 596.4 274.45 595.2 274.8 594.45 275.3
L 595.1 277.45
Q 595.8 277 596.7 276.75 597.65 276.5 598.65 276.45 599.8 276.5 600.35 276.85 600.95 277.25 601.15 277.8 601.3 278.3 601.3 278.75
L 601.3 278.95
Q 597.65 278.95 595.6 280.2 593.55 281.45 593.5 283.95 593.5 284.95 594 285.85 594.45 286.7 595.4 287.25 596.3 287.85 597.65 287.85 598.95 287.85 599.9 287.35 600.9 286.85 601.5 286.1
L 601.6 286.1 601.85 287.55 604.8 287.55
Q 604.75 286.95 604.65 286.1 604.65 285.3 604.65 284.4
L 604.65 279.65
Q 604.65 278.2 604.15 276.95
M 601.4 281.15
L 601.4 282.95
Q 601.4 283.1 601.35 283.3 601.35 283.5 601.3 283.65 601.05 284.4 600.4 284.9 599.7 285.45 598.7 285.45 597.9 285.45 597.35 285 596.8 284.55 596.8 283.6 596.8 282.6 597.5 282.05 598.1 281.5 599.15 281.3 600.2 281.1 601.4 281.15
M 568.4 279.65
Q 568.4 278.2 567.9 276.95 567.4 275.7 566.25 274.9 565.05 274.15 562.95 274.1 561.4 274.15 560.15 274.45 558.95 274.8 558.2 275.3
L 558.85 277.45
Q 559.55 277 560.45 276.75 561.4 276.5 562.4 276.45 563.55 276.5 564.1 276.85 564.7 277.25 564.9 277.8 565.05 278.3 565.05 278.75
L 565.05 278.95
Q 561.4 278.95 559.35 280.2 557.3 281.45 557.25 283.95 557.25 284.95 557.75 285.85 558.2 286.7 559.15 287.25 560.05 287.85 561.4 287.85 562.7 287.85 563.65 287.35 564.65 286.85 565.25 286.1
L 565.35 286.1 565.6 287.55 568.55 287.55
Q 568.5 286.95 568.4 286.1 568.4 285.3 568.4 284.4
L 568.4 279.65
M 560.55 283.6
Q 560.55 282.6 561.25 282.05 561.85 281.5 562.9 281.3 563.95 281.1 565.15 281.15
L 565.15 282.95
Q 565.15 283.1 565.1 283.3 565.1 283.5 565.05 283.65 564.8 284.4 564.15 284.9 563.45 285.45 562.45 285.45 561.65 285.45 561.1 285 560.55 284.55 560.55 283.6
M 585.1 276.3
Q 585.15 277.3 585.15 278.65
L 585.15 287.55 588.45 287.55 588.45 280.75
Q 588.45 280.45 588.5 280.2 588.5 279.95 588.55 279.75 588.8 278.6 589.55 277.95 590.3 277.25 591.5 277.25 591.85 277.25 592.05 277.25 592.3 277.3 592.5 277.35
L 592.5 274.2
Q 592.3 274.15 592.15 274.15 591.95 274.1 591.7 274.1 590.65 274.1 589.65 274.85 588.65 275.55 588.1 276.9
L 588 276.9 587.9 274.4 585 274.4
Q 585.1 275.3 585.1 276.3
M 580.45 268.4
Q 579.55 268.7 578.8 269.35 577.95 270.2 577.6 271.35 577.2 272.55 577.2 273.85
L 577.2 274.4 575.45 274.4 575.45 276.9 577.2 276.9 577.2 287.55 580.55 287.55 580.55 276.9 583.4 276.9 583.4 274.4 580.5 274.4 580.5 273.75
Q 580.5 272.9 580.7 272.25 580.95 271.55 581.4 271.15 581.9 270.75 582.7 270.75 583.15 270.75 583.5 270.8 583.85 270.85 584.1 271
L 584.35 268.4
Q 583.95 268.3 583.45 268.2 582.9 268.1 582.25 268.1 581.35 268.1 580.45 268.4
M 396.3 277.25
Q 396.65 277.25 396.85 277.25 397.1 277.3 397.3 277.35
L 397.3 274.2
Q 397.1 274.15 396.95 274.15 396.75 274.1 396.5 274.1 395.45 274.1 394.45 274.85 393.45 275.55 392.9 276.9
L 392.8 276.9 392.7 274.4 389.8 274.4
Q 389.9 275.3 389.9 276.3 389.95 277.3 389.95 278.65
L 389.95 287.55 393.25 287.55 393.25 280.75
Q 393.25 280.45 393.3 280.2 393.3 279.95 393.35 279.75 393.6 278.6 394.35 277.95 395.1 277.25 396.3 277.25
M 382.45 276.85
Q 383.05 277.25 383.25 277.8 383.4 278.3 383.4 278.75
L 383.4 278.95
Q 379.75 278.95 377.7 280.2 375.65 281.45 375.6 283.95 375.6 284.95 376.1 285.85 376.55 286.7 377.5 287.25 378.4 287.85 379.75 287.85 381.05 287.85 382 287.35 383 286.85 383.6 286.1
L 383.7 286.1 383.95 287.55 386.9 287.55
Q 386.85 286.95 386.75 286.1 386.75 285.3 386.75 284.4
L 386.75 279.65
Q 386.75 278.2 386.25 276.95 385.75 275.7 384.6 274.9 383.4 274.15 381.3 274.1 379.75 274.15 378.5 274.45 377.3 274.8 376.55 275.3
L 377.2 277.45
Q 377.9 277 378.8 276.75 379.75 276.5 380.75 276.45 381.9 276.5 382.45 276.85
M 378.9 283.6
Q 378.9 282.6 379.6 282.05 380.2 281.5 381.25 281.3 382.3 281.1 383.5 281.15
L 383.5 282.95
Q 383.5 283.1 383.45 283.3 383.45 283.5 383.4 283.65 383.15 284.4 382.5 284.9 381.8 285.45 380.8 285.45 380 285.45 379.45 285 378.9 284.55 378.9 283.6
M 371.15 270.65
L 367.9 271.45 367.9 274.4 366 274.4 366 276.9 367.9 276.9 367.9 283.05
Q 367.9 284.35 368.15 285.25 368.4 286.15 368.95 286.75 369.4 287.25 370.15 287.5 370.85 287.8 371.8 287.8 372.6 287.8 373.2 287.7 373.8 287.65 374.2 287.5
L 374.15 284.95
Q 373.9 285 373.6 285.05 373.25 285.1 372.85 285.1 371.9 285.1 371.5 284.5 371.15 283.9 371.15 282.7
L 371.15 276.9 374.3 276.9 374.3 274.4 371.15 274.4 371.15 270.65
M 362.25 269.35
Q 361.15 269.1 359.7 269.05 357.7 269.1 356.25 269.75 354.8 270.45 354.05 271.6 353.25 272.8 353.25 274.3 353.25 276.25 354.6 277.5 355.9 278.8 358.15 279.6 359.9 280.2 360.65 280.9 361.4 281.6 361.4 282.6 361.4 283.75 360.55 284.4 359.7 285.05 358.1 285.1 356.8 285.05 355.65 284.75 354.5 284.4 353.7 283.9
L 352.95 286.7
Q 353.45 287 354.25 287.25 355.05 287.5 355.95 287.65 356.9 287.8 357.85 287.8 360.2 287.8 361.75 287.05 363.3 286.3 364.05 285.05 364.8 283.85 364.8 282.35 364.8 280.4 363.6 279.15 362.45 277.85 360.1 277 358.25 276.3 357.45 275.65 356.6 275 356.6 274 356.6 273.45 356.9 272.95 357.25 272.45 357.9 272.15 358.55 271.8 359.65 271.8 360.9 271.8 361.85 272.1 362.75 272.4 363.25 272.65
L 364.05 270
Q 363.35 269.6 362.25 269.35
M 484.9 281.05
Q 484.9 282.95 485.6 284.35 486.35 285.8 487.6 286.65 488.85 287.45 490.5 287.45 491.8 287.45 492.75 286.95 493.75 286.4 494.3 285.55
L 494.35 285.55 494.35 286.65
Q 494.35 288.1 493.85 288.95 493.4 289.8 492.55 290.25 491.7 290.65 490.6 290.6 489.4 290.6 488.4 290.3 487.4 290 486.75 289.65
L 486.05 292.15
Q 486.9 292.65 488.15 292.95 489.35 293.2 490.6 293.2 492 293.2 493.3 292.85 494.65 292.5 495.7 291.6 496.7 290.65 497.15 289.2 497.65 287.7 497.65 285.65
L 497.65 278.2
Q 497.65 276.85 497.65 275.95 497.7 275.05 497.75 274.4
L 494.85 274.4 494.7 276.15 494.65 276.15
Q 494.2 275.35 493.3 274.75 492.35 274.15 490.85 274.1 489.25 274.15 487.9 274.95 486.55 275.8 485.75 277.35 484.95 278.9 484.9 281.05
M 491.5 276.65
Q 492.55 276.65 493.25 277.25 493.95 277.85 494.2 278.8 494.25 279 494.3 279.2 494.3 279.45 494.3 279.7
L 494.3 281.8
Q 494.3 282.1 494.25 282.4 494.25 282.7 494.2 283 493.9 283.9 493.15 284.45 492.45 285 491.5 285 490.45 285 489.7 284.45 489 283.9 488.65 283 488.25 282.1 488.25 280.95 488.3 278.95 489.2 277.8 490.1 276.65 491.5 276.65
M 480.4 274.9
Q 479.2 274.15 477.1 274.1 475.55 274.15 474.3 274.45 473.1 274.8 472.35 275.3
L 473 277.45
Q 473.7 277 474.6 276.75 475.55 276.5 476.55 276.45 477.7 276.5 478.25 276.85 478.85 277.25 479.05 277.8 479.2 278.3 479.2 278.75
L 479.2 278.95
Q 475.55 278.95 473.5 280.2 471.45 281.45 471.4 283.95 471.4 284.95 471.9 285.85 472.35 286.7 473.3 287.25 474.2 287.85 475.55 287.85 476.85 287.85 477.8 287.35 478.8 286.85 479.4 286.1
L 479.5 286.1 479.75 287.55 482.7 287.55
Q 482.65 286.95 482.55 286.1 482.55 285.3 482.55 284.4
L 482.55 279.65
Q 482.55 278.2 482.05 276.95 481.55 275.7 480.4 274.9
M 479.3 281.15
L 479.3 282.95
Q 479.3 283.1 479.25 283.3 479.25 283.5 479.2 283.65 478.95 284.4 478.3 284.9 477.6 285.45 476.6 285.45 475.8 285.45 475.25 285 474.7 284.55 474.7 283.6 474.7 282.6 475.4 282.05 476 281.5 477.05 281.3 478.1 281.1 479.3 281.15
M 463 276.3
Q 463.05 277.3 463.05 278.65
L 463.05 287.55 466.35 287.55 466.35 280.75
Q 466.35 280.45 466.4 280.2 466.4 279.95 466.45 279.75 466.7 278.6 467.45 277.95 468.2 277.25 469.4 277.25 469.75 277.25 469.95 277.25 470.2 277.3 470.4 277.35
L 470.4 274.2
Q 470.2 274.15 470.05 274.15 469.85 274.1 469.6 274.1 468.55 274.1 467.55 274.85 466.55 275.55 466 276.9
L 465.9 276.9 465.8 274.4 462.9 274.4
Q 463 275.3 463 276.3
M 459.75 268.4
L 456.45 268.4 456.45 275.85 456.4 275.85
Q 455.95 275.1 455 274.6 454.05 274.15 452.7 274.1 451.1 274.15 449.75 274.95 448.4 275.8 447.6 277.35 446.8 278.95 446.8 281.15 446.8 283.15 447.55 284.65 448.3 286.15 449.55 287 450.85 287.85 452.4 287.85 453.85 287.85 455 287.2 456.1 286.55 456.7 285.45
L 456.75 285.45 456.9 287.55 459.85 287.55
Q 459.8 286.85 459.8 285.9 459.75 284.9 459.75 283.85
L 459.75 268.4
M 456.35 279.05
Q 456.4 279.25 456.4 279.45 456.45 279.7 456.45 279.9
L 456.45 281.85
Q 456.45 282.1 456.4 282.35 456.4 282.6 456.35 282.8 456.05 283.9 455.3 284.55 454.5 285.15 453.45 285.15 452.4 285.15 451.7 284.6 450.95 284.1 450.55 283.15 450.15 282.2 450.15 281 450.15 279.8 450.55 278.8 450.95 277.85 451.7 277.25 452.45 276.7 453.5 276.7 454.65 276.7 455.4 277.35 456.1 278.05 456.35 279.05
M 440.75 274.4
L 437.2 274.4 435.15 281.45
Q 434.95 282.1 434.8 282.75 434.6 283.45 434.45 284
L 434.35 284
Q 434.25 283.45 434.05 282.75 433.85 282.1 433.65 281.45
L 431.25 274.4 427.6 274.4 432.4 286.5
Q 432.55 286.7 432.6 286.85 432.6 287 432.6 287.15 432.6 287.25 432.55 287.4 432.5 287.55 432.4 287.7 432.05 288.4 431.55 288.95 431.05 289.5 430.6 289.8 430.1 290.15 429.6 290.4 429.05 290.6 428.65 290.7
L 429.4 293.5
Q 430.05 293.45 430.95 293.05 431.9 292.7 432.9 291.8 433.65 291.15 434.35 290.1 435.1 289.1 435.8 287.45 436.6 285.8 437.45 283.35
L 440.75 274.4
M 406.2 276.9
L 406.2 274.4 403.05 274.4 403.05 270.65 399.8 271.45 399.8 274.4 397.9 274.4 397.9 276.9 399.8 276.9 399.8 283.05
Q 399.8 284.35 400.05 285.25 400.3 286.15 400.85 286.75 401.3 287.25 402.05 287.5 402.75 287.8 403.7 287.8 404.5 287.8 405.1 287.7 405.7 287.65 406.1 287.5
L 406.05 284.95
Q 405.8 285 405.5 285.05 405.15 285.1 404.75 285.1 403.8 285.1 403.4 284.5 403.05 283.9 403.05 282.7
L 403.05 276.9 406.2 276.9
M 417 268.4
L 413.7 268.4 413.7 283.85
Q 413.7 284.9 413.65 285.9 413.6 286.85 413.55 287.55
L 416.4 287.55 416.55 285.55 416.6 285.55
Q 417.35 286.75 418.4 287.3 419.5 287.85 420.8 287.85 422.3 287.85 423.65 287.05 425 286.25 425.85 284.7 426.7 283.15 426.75 280.75 426.75 278.75 426.05 277.3 425.35 275.8 424.1 274.95 422.9 274.15 421.25 274.1 419.8 274.15 418.75 274.7 417.65 275.25 417.05 276.25
L 417 276.25 417 268.4
M 418.2 277.35
Q 419 276.75 420.05 276.7 421.15 276.75 421.9 277.3 422.65 277.85 423 278.8 423.35 279.75 423.35 280.9 423.35 282.9 422.45 284.05 421.6 285.2 420 285.2 418.95 285.2 418.15 284.55 417.35 283.9 417.1 282.9 417.05 282.7 417 282.55 417 282.35 417 282.1
L 417 280
Q 417 279.75 417.05 279.55 417.05 279.3 417.1 279.15 417.4 278.05 418.2 277.35
M 701.5 274.7
Q 700.4 274.15 698.8 274.1 696.7 274.15 695.3 275.15 693.85 276.15 693.15 277.75 692.4 279.3 692.4 281.2 692.4 283.2 693.2 284.7 694 286.15 695.5 287 697.05 287.8 699.2 287.8 700.6 287.8 701.75 287.6 702.9 287.35 703.75 287
L 703.3 284.7
Q 702.55 285 701.65 285.15 700.75 285.3 699.6 285.3 698.55 285.3 697.65 284.95 696.75 284.6 696.2 283.85 695.65 283.1 695.6 281.9
L 704.4 281.9
Q 704.4 281.7 704.45 281.35 704.5 280.95 704.5 280.5 704.5 279.4 704.2 278.3 703.9 277.15 703.25 276.25 702.6 275.3 701.5 274.7
M 698.65 276.4
Q 699.75 276.4 700.3 276.95 700.95 277.5 701.15 278.2 701.4 278.95 701.35 279.6
L 695.6 279.6
Q 695.65 278.9 696 278.15 696.3 277.45 696.95 276.9 697.6 276.4 698.65 276.4
M 715.5 268.4
L 712.15 268.4 712.15 287.55 715.5 287.55 715.5 279.7
Q 715.5 279.4 715.5 279.15 715.55 278.9 715.6 278.7 715.9 277.95 716.55 277.4 717.2 276.85 718.2 276.85 719.55 276.85 720.15 277.8 720.75 278.7 720.7 280.2
L 720.7 287.55 724.05 287.55 724.05 279.8
Q 724 277.7 723.35 276.45 722.7 275.2 721.65 274.65 720.6 274.1 719.45 274.1 718.8 274.1 718.25 274.25 717.65 274.4 717.2 274.7 716.65 275 716.25 275.4 715.85 275.75 715.55 276.25
L 715.5 276.25 715.5 268.4
M 686.6 268.4
L 686.6 287.55 689.95 287.55 689.95 268.4 686.6 268.4
M 683.35 274.4
L 680 274.4 680 287.55 683.35 287.55 683.35 274.4
M 658.4 277.75
Q 659 278.7 658.95 280.15
L 658.95 287.55 662.3 287.55 662.3 279.75
Q 662.25 277.7 661.6 276.45 660.9 275.2 659.85 274.65 658.8 274.1 657.6 274.1 656.5 274.15 655.7 274.45 654.85 274.85 654.3 275.35 653.7 275.85 653.45 276.4
L 653.35 276.4 653.2 274.4 650.25 274.4
Q 650.35 275.25 650.35 276.25 650.4 277.2 650.4 278.3
L 650.4 287.55 653.75 287.55 653.75 279.85
Q 653.75 279.55 653.75 279.25 653.8 279 653.85 278.75 654.15 278 654.8 277.4 655.45 276.85 656.45 276.8 657.8 276.85 658.4 277.75
M 681.65 268.9
Q 680.8 268.95 680.3 269.45 679.8 269.95 679.8 270.75 679.8 271.5 680.3 272 680.8 272.5 681.65 272.5 682.5 272.5 683 272 683.5 271.5 683.55 270.75 683.5 269.95 683 269.45 682.5 268.95 681.65 268.9
M 674.6 270.65
L 671.35 271.45 671.35 274.4 669.45 274.4 669.45 276.9 671.35 276.9 671.35 283.05
Q 671.35 284.35 671.6 285.25 671.85 286.15 672.4 286.75 672.85 287.25 673.6 287.5 674.3 287.8 675.25 287.8 676.05 287.8 676.65 287.7 677.25 287.65 677.65 287.5
L 677.6 284.95
Q 677.35 285 677.05 285.05 676.7 285.1 676.3 285.1 675.35 285.1 674.95 284.5 674.6 283.9 674.6 282.7
L 674.6 276.9 677.75 276.9 677.75 274.4 674.6 274.4 674.6 270.65
M 767 284.15
Q 766.45 283.6 765.55 283.55 764.65 283.6 764.05 284.2 763.5 284.75 763.5 285.7 763.5 286.65 764.05 287.2 764.6 287.8 765.55 287.85 766.5 287.8 767 287.2 767.55 286.65 767.6 285.7 767.55 284.75 767 284.15
M 761.2 278.3
Q 760.9 277.15 760.25 276.25 759.6 275.3 758.5 274.7 757.4 274.15 755.8 274.1 753.7 274.15 752.3 275.15 750.85 276.15 750.15 277.75 749.4 279.3 749.4 281.2 749.4 283.2 750.2 284.7 751 286.15 752.5 287 754.05 287.8 756.2 287.8 757.6 287.8 758.75 287.6 759.9 287.35 760.75 287
L 760.3 284.7
Q 759.55 285 758.65 285.15 757.75 285.3 756.6 285.3 755.55 285.3 754.65 284.95 753.75 284.6 753.2 283.85 752.65 283.1 752.6 281.9
L 761.4 281.9
Q 761.4 281.7 761.45 281.35 761.5 280.95 761.5 280.5 761.5 279.4 761.2 278.3
M 755.65 276.4
Q 756.75 276.4 757.3 276.95 757.95 277.5 758.15 278.2 758.4 278.95 758.35 279.6
L 752.6 279.6
Q 752.65 278.9 753 278.15 753.3 277.45 753.95 276.9 754.6 276.4 755.65 276.4
M 737.3 276.25
Q 736.65 275.3 735.55 274.7 734.45 274.15 732.85 274.1 730.75 274.15 729.35 275.15 727.9 276.15 727.2 277.75 726.45 279.3 726.45 281.2 726.45 283.2 727.25 284.7 728.05 286.15 729.55 287 731.1 287.8 733.25 287.8 734.65 287.8 735.8 287.6 736.95 287.35 737.8 287
L 737.35 284.7
Q 736.6 285 735.7 285.15 734.8 285.3 733.65 285.3 732.6 285.3 731.7 284.95 730.8 284.6 730.25 283.85 729.7 283.1 729.65 281.9
L 738.45 281.9
Q 738.45 281.7 738.5 281.35 738.55 280.95 738.55 280.5 738.55 279.4 738.25 278.3 737.95 277.15 737.3 276.25
M 734.35 276.95
Q 735 277.5 735.2 278.2 735.45 278.95 735.4 279.6
L 729.65 279.6
Q 729.7 278.9 730.05 278.15 730.35 277.45 731 276.9 731.65 276.4 732.7 276.4 733.8 276.4 734.35 276.95
M 748.3 277.35
L 748.3 274.2
Q 748.1 274.15 747.95 274.15 747.75 274.1 747.5 274.1 746.45 274.1 745.45 274.85 744.45 275.55 743.9 276.9
L 743.8 276.9 743.7 274.4 740.8 274.4
Q 740.9 275.3 740.9 276.3 740.95 277.3 740.95 278.65
L 740.95 287.55 744.25 287.55 744.25 280.75
Q 744.25 280.45 744.3 280.2 744.3 279.95 744.35 279.75 744.6 278.6 745.35 277.95 746.1 277.25 747.3 277.25 747.65 277.25 747.85 277.25 748.1 277.3 748.3 277.35 Z"/>
</g>
</defs>

<g transform="matrix( 1, 0, 0, 1, -267.95,-229.4) ">
<use xlink:href="#Layer0_0_MEMBER_0_FILL"/>
</g>

<g transform="matrix( 1, 0, 0, 1, -267.95,-229.4) ">
<use xlink:href="#Layer0_0_MEMBER_1_FILL"/>
</g>
</svg>
