
<svg xmlns="http://www.w3.org/2000/svg" version="1.1" xmlns:xlink="http://www.w3.org/1999/xlink" preserveAspectRatio="none" x="0px" y="0px" width="1190px" height="95px" viewBox="0 0 1190 95">
<defs>
<g id="Layer0_0_MEMBER_0_FILL">
<path fill="#042A43" stroke="none" d="
M 272.15 171.1
Q 270.7 169.95 268.5 169.9 266.4 169.9 264.9 171.1 263.4 172.3 262.65 174.4 261.85 176.5 261.85 179.35 261.85 182.15 262.6 184.25 263.35 186.35 264.8 187.5 266.2 188.65 268.3 188.7 270.5 188.7 271.95 187.55 273.45 186.4 274.2 184.25 274.95 182.1 274.95 179.2 274.95 176.5 274.25 174.4 273.55 172.3 272.15 171.1
M 270.75 174.3
Q 271.5 176.05 271.5 179.25 271.5 182.55 270.75 184.3 269.95 186.05 268.45 186.05 267 186.05 266.15 184.35 265.35 182.65 265.35 179.35 265.35 175.95 266.2 174.25 267.05 172.55 268.45 172.55 270 172.55 270.75 174.3
M 847.7 172.4
L 848.25 175 851.6 173.3 851.65 173.3 851.65 188.4 855 188.4 855 170.2 852.1 170.2 847.7 172.4
M 1439.55 172.7
Q 1440.75 172.7 1441.45 173.15 1442.15 173.55 1442.5 174.25 1442.8 174.95 1442.8 175.75 1442.8 176.95 1442.1 178.15 1441.4 179.4 1440 180.85 1438.6 182.35 1436.45 184.3
L 1434.3 186.3 1434.3 188.4 1446.65 188.4 1446.65 185.55 1439.2 185.55 1439.2 185.5 1440.8 184.1
Q 1442.35 182.65 1443.6 181.25 1444.85 179.85 1445.55 178.45 1446.25 177 1446.25 175.4 1446.25 173.9 1445.6 172.65 1444.95 171.4 1443.6 170.65 1442.25 169.95 1440.25 169.9 1438.5 169.9 1437.1 170.45 1435.65 170.95 1434.65 171.8
L 1435.65 174.2
Q 1436.35 173.65 1437.35 173.2 1438.35 172.75 1439.55 172.7 Z"/>
</g>

<path id="Layer0_0_1_STROKES" stroke="#042A43" stroke-width="3" stroke-linejoin="miter" stroke-linecap="square" stroke-miterlimit="3" fill="none" d="
M 1176.3 398.4
L 591 398.4 5.8 398.4"/>

<path id="Layer0_0_2_STROKES" stroke="#042A43" stroke-width="1.5" stroke-linejoin="miter" stroke-linecap="square" stroke-miterlimit="3" fill="none" d="
M 1177.15 369.9
L 1177.15 428.65
M 591 398.4
L 591 428.65
M 4.85 369.9
L 4.85 428.65
M 591 369.9
L 591 398.4"/>
</defs>

<g transform="matrix( 1, 0, 0, 1, 4,-336.15) ">
<use xlink:href="#Layer0_0_1_STROKES"/>

<use xlink:href="#Layer0_0_2_STROKES"/>
</g>

<g transform="matrix( 1, 0, 0, 1, -257.85,-165.9) ">
<use xlink:href="#Layer0_0_MEMBER_0_FILL"/>
</g>
</svg>
