
<svg xmlns="http://www.w3.org/2000/svg" version="1.1" xmlns:xlink="http://www.w3.org/1999/xlink" preserveAspectRatio="none" x="0px" y="0px" width="154px" height="24px" viewBox="0 0 154 24">
<defs>
<g id="Layer0_1_MEMBER_0_FILL">
<path fill="#29A8E0" stroke="none" d="
M 1649.7 185.45
Q 1649.7 188.45 1652.7 188.45
L 1663.7 188.45
Q 1666.7 188.45 1666.7 185.45
L 1666.7 174.45
Q 1666.7 171.45 1663.7 171.45
L 1652.7 171.45
Q 1649.7 171.45 1649.7 174.45
L 1649.7 185.45 Z"/>
</g>

<g id="Layer0_2_FILL">
<path fill="#032B43" stroke="none" d="
M 35.35 7.95
Q 34.75 7.8 33.95 7.8 32.85 7.8 32.05 8.15 31.3 8.55 30.85 9.2 30.45 9.85 30.4 10.65 30.45 11.75 31.15 12.45 31.85 13.15 33.1 13.55 34.05 13.9 34.5 14.3 34.9 14.65 34.9 15.25 34.9 15.85 34.45 16.2 33.95 16.6 33.1 16.6 32.35 16.6 31.75 16.4 31.1 16.2 30.65 15.95
L 30.25 17.45
Q 30.55 17.65 30.95 17.8 31.4 17.9 31.9 18 32.45 18.1 32.95 18.1 34.25 18.1 35.1 17.65 35.95 17.25 36.35 16.6 36.75 15.9 36.75 15.1 36.75 14.05 36.15 13.3 35.5 12.6 34.2 12.15 33.2 11.75 32.7 11.4 32.25 11.05 32.25 10.5 32.25 10.2 32.45 9.9 32.6 9.65 33 9.45 33.35 9.3 33.95 9.3 34.65 9.3 35.15 9.45 35.65 9.6 35.9 9.75
L 36.35 8.3
Q 35.95 8.1 35.35 7.95
M 40.75 12.35
Q 41.1 12.1 41.65 12.05 42.4 12.1 42.75 12.6 43.05 13.1 43.05 13.9
L 43.05 17.95 44.9 17.95 44.9 13.7
Q 44.85 12.55 44.5 11.85 44.15 11.15 43.55 10.85 43 10.55 42.35 10.55 42 10.55 41.7 10.65 41.35 10.75 41.1 10.9 40.8 11.05 40.6 11.25 40.35 11.45 40.2 11.7
L 40.15 11.7 40.15 7.4 38.35 7.4 38.35 17.95 40.15 17.95 40.15 13.65
Q 40.15 13.5 40.2 13.35 40.2 13.2 40.25 13.1 40.4 12.65 40.75 12.35
M 53.25 12.35
Q 52.8 11.5 52 11.05 51.2 10.55 50.1 10.55 49 10.55 48.15 11.05 47.35 11.5 46.85 12.35 46.4 13.2 46.35 14.4 46.4 15.55 46.85 16.4 47.35 17.2 48.15 17.65 48.95 18.1 50 18.1 50.95 18.1 51.75 17.7 52.6 17.3 53.15 16.45 53.7 15.6 53.7 14.25 53.7 13.15 53.25 12.35
M 49.05 12.25
Q 49.4 11.9 50.05 11.9 50.7 11.9 51.1 12.25 51.45 12.65 51.65 13.2 51.8 13.75 51.8 14.3 51.8 15.05 51.6 15.6 51.35 16.15 50.95 16.45 50.6 16.8 50.05 16.8 49.5 16.8 49.1 16.45 48.7 16.15 48.45 15.6 48.25 15.05 48.25 14.35 48.25 13.75 48.45 13.15 48.65 12.6 49.05 12.25
M 65.2 10.7
L 63.4 10.7 62.6 13.95
Q 62.45 14.55 62.3 15.15 62.2 15.75 62.1 16.35 61.95 15.75 61.8 15.15 61.65 14.55 61.5 13.95
L 60.6 10.7 59.1 10.7 58.15 14
Q 58 14.55 57.85 15.15 57.7 15.75 57.6 16.35
L 57.55 16.35
Q 57.45 15.75 57.35 15.15 57.2 14.6 57.1 14
L 56.35 10.7 54.45 10.7 56.6 17.95 58.3 17.95 59.25 15
Q 59.4 14.5 59.55 13.9 59.65 13.35 59.8 12.7 59.95 13.35 60.05 13.9 60.2 14.45 60.35 15
L 61.2 17.95 62.9 17.95 65.2 10.7
M 74.1 12.25
L 71.55 7.95 69.45 7.95 69.45 17.95 71.15 17.95 71.15 14.4
Q 71.15 13.15 71.1 12.1 71.1 11.05 71.05 10.1
L 71.1 10.1
Q 71.45 10.95 71.95 11.85 72.4 12.7 72.9 13.55
L 75.5 17.95 77.4 17.95 77.4 7.95 75.7 7.95 75.7 11.45
Q 75.7 12.55 75.75 13.6 75.75 14.6 75.85 15.6 75.5 14.75 75.05 13.9 74.6 13.05 74.1 12.25
M 85.85 10.7
L 84.05 10.7 84.05 15.1
Q 84.05 15.25 84 15.4 83.95 15.5 83.95 15.65 83.8 16 83.4 16.3 83.1 16.6 82.55 16.6 81.8 16.6 81.5 16.1 81.15 15.55 81.2 14.65
L 81.2 10.7 79.35 10.7 79.35 14.95
Q 79.35 16.15 79.7 16.85 80.05 17.5 80.65 17.8 81.2 18.1 81.85 18.1 82.5 18.1 83 17.9 83.45 17.7 83.75 17.4 84.05 17.1 84.2 16.85
L 84.3 17.95 85.9 17.95
Q 85.9 17.5 85.85 16.95 85.85 16.45 85.85 15.8
L 85.85 10.7
M 94.6 12.35
Q 94.95 12.05 95.4 12.05 96.05 12.05 96.4 12.55 96.7 13.05 96.7 13.95
L 96.7 17.95 98.5 17.95 98.5 13.7
Q 98.45 12.55 98.15 11.85 97.8 11.15 97.25 10.85 96.7 10.55 96.05 10.55 95.6 10.55 95.25 10.65 94.9 10.8 94.6 11 94.35 11.15 94.15 11.35 93.9 11.6 93.7 11.9 93.45 11.3 92.95 10.95 92.4 10.55 91.7 10.55 91.1 10.55 90.65 10.75 90.2 10.95 89.95 11.2 89.65 11.5 89.45 11.8
L 89.4 11.8 89.35 10.7 87.75 10.7
Q 87.8 11.2 87.8 11.7 87.85 12.25 87.85 12.85
L 87.85 17.95 89.6 17.95 89.6 13.7
Q 89.6 13.5 89.65 13.35 89.65 13.2 89.7 13.1 89.85 12.7 90.15 12.35 90.5 12.05 91 12.05 91.65 12.05 91.95 12.55 92.25 13 92.25 13.75
L 92.25 17.95 94.05 17.95 94.05 13.6
Q 94.05 13.45 94.1 13.3 94.1 13.15 94.15 13 94.3 12.6 94.6 12.35
M 107.25 12.3
Q 106.85 11.5 106.15 11.05 105.5 10.55 104.6 10.55 103.8 10.55 103.2 10.9 102.6 11.2 102.3 11.7
L 102.25 11.7 102.25 7.4 100.45 7.4 100.45 15.9
Q 100.45 16.5 100.4 17.05 100.4 17.55 100.35 17.95
L 101.95 17.95 102 16.85 102.05 16.85
Q 102.45 17.5 103.05 17.8 103.65 18.1 104.35 18.1 105.15 18.1 105.9 17.65 106.65 17.25 107.15 16.4 107.6 15.5 107.6 14.2 107.6 13.1 107.25 12.3
M 102.9 12.35
Q 103.35 12 103.95 12 104.55 12 104.95 12.3 105.35 12.6 105.55 13.15 105.75 13.65 105.75 14.3 105.75 15.4 105.25 16.05 104.8 16.65 103.9 16.65 103.3 16.65 102.9 16.3 102.45 15.95 102.3 15.4 102.3 15.3 102.25 15.2 102.25 15.1 102.25 14.95
L 102.25 13.8
Q 102.25 13.65 102.25 13.55 102.3 13.45 102.3 13.3 102.5 12.7 102.9 12.35
M 118.4 12.1
L 118.35 12.1 118.3 10.7 116.7 10.7
Q 116.75 11.2 116.75 11.75 116.8 12.3 116.8 13.05
L 116.8 17.95 118.6 17.95 118.6 14.2
Q 118.6 14.05 118.6 13.9 118.65 13.75 118.65 13.65 118.8 13.05 119.2 12.65 119.65 12.3 120.3 12.25 120.45 12.25 120.6 12.3 120.7 12.3 120.85 12.35
L 120.85 10.6
Q 120.7 10.6 120.65 10.6 120.55 10.55 120.4 10.55 119.8 10.55 119.25 10.95 118.7 11.35 118.4 12.1
M 114.65 11.7
Q 114.3 11.2 113.7 10.9 113.1 10.55 112.2 10.55 111.05 10.6 110.25 11.15 109.5 11.65 109.1 12.55 108.65 13.45 108.65 14.45 108.7 15.55 109.1 16.4 109.55 17.2 110.4 17.65 111.2 18.1 112.4 18.1 113.15 18.1 113.8 17.95 114.45 17.85 114.9 17.65
L 114.65 16.4
Q 114.25 16.55 113.75 16.65 113.3 16.7 112.65 16.7 112.05 16.7 111.55 16.5 111.05 16.35 110.75 15.9 110.45 15.5 110.45 14.85
L 115.25 14.85
Q 115.3 14.7 115.3 14.55 115.3 14.35 115.3 14.1 115.3 13.45 115.15 12.85 115 12.25 114.65 11.7
M 112.1 11.8
Q 112.7 11.8 113.05 12.1 113.35 12.4 113.5 12.8 113.6 13.2 113.6 13.55
L 110.45 13.55
Q 110.45 13.2 110.65 12.8 110.85 12.4 111.2 12.1 111.55 11.8 112.1 11.8
M 127.05 7.95
L 125.2 7.95 125.2 17.95 131.15 17.95 131.15 16.4 127.05 16.4 127.05 7.95
M 134.25 10.7
L 132.45 10.7 132.45 17.95 134.25 17.95 134.25 10.7
M 134.1 8
Q 133.85 7.7 133.35 7.7 132.9 7.7 132.6 8 132.35 8.25 132.35 8.7 132.35 9.1 132.6 9.4 132.9 9.65 133.35 9.7 133.8 9.65 134.1 9.4 134.35 9.1 134.4 8.7 134.35 8.25 134.1 8
M 142.8 17.95
L 142.8 13.65
Q 142.75 12.55 142.4 11.85 142 11.15 141.45 10.85 140.85 10.55 140.2 10.55 139.6 10.55 139.15 10.75 138.7 10.95 138.4 11.25 138.05 11.5 137.9 11.8
L 137.85 11.8 137.75 10.7 136.15 10.7
Q 136.2 11.2 136.2 11.7 136.25 12.25 136.25 12.85
L 136.25 17.95 138.05 17.95 138.05 13.7
Q 138.05 13.55 138.1 13.4 138.1 13.25 138.15 13.1 138.3 12.7 138.65 12.35 139 12.05 139.55 12.05 140.3 12.05 140.65 12.55 140.95 13.1 140.95 13.85
L 140.95 17.95 142.8 17.95
M 147.8 10.55
Q 146.65 10.6 145.85 11.15 145.1 11.65 144.7 12.55 144.25 13.45 144.25 14.45 144.3 15.55 144.7 16.4 145.15 17.2 146 17.65 146.8 18.1 148 18.1 148.75 18.1 149.4 17.95 150.05 17.85 150.5 17.65
L 150.25 16.4
Q 149.85 16.55 149.35 16.65 148.9 16.7 148.25 16.7 147.65 16.7 147.15 16.5 146.65 16.35 146.35 15.9 146.05 15.5 146.05 14.85
L 150.85 14.85
Q 150.9 14.7 150.9 14.55 150.9 14.35 150.9 14.1 150.9 13.45 150.75 12.85 150.6 12.25 150.25 11.7 149.9 11.2 149.3 10.9 148.7 10.55 147.8 10.55
M 147.7 11.8
Q 148.3 11.8 148.65 12.1 148.95 12.4 149.1 12.8 149.2 13.2 149.2 13.55
L 146.05 13.55
Q 146.05 13.2 146.25 12.8 146.45 12.4 146.8 12.1 147.15 11.8 147.7 11.8 Z"/>
</g>

<path id="Layer0_0_1_STROKES" stroke="#FF9933" stroke-width="1.5" stroke-linejoin="miter" stroke-linecap="square" stroke-miterlimit="3" fill="none" d="
M 4.35 10.95
L 9.75 16.6"/>
</defs>

<g transform="matrix( 1, 0, 0, 1, 0,0) ">
<use xlink:href="#Layer0_0_1_STROKES"/>
</g>

<g transform="matrix( 1, 0, 0, 1, -1648.8,-168.85) ">
<use xlink:href="#Layer0_1_MEMBER_0_FILL"/>
</g>

<g transform="matrix( 1, 0, 0, 1, 0,-0.3) ">
<use xlink:href="#Layer0_2_FILL"/>
</g>
</svg>
