
<svg xmlns="http://www.w3.org/2000/svg" version="1.1" xmlns:xlink="http://www.w3.org/1999/xlink" preserveAspectRatio="none" x="0px" y="0px" width="154px" height="24px" viewBox="0 0 154 24">
<defs>
<g id="Layer0_0_MEMBER_0_FILL">
<path fill="#29A8E0" stroke="none" d="
M 1649.7 185.45
Q 1649.7 188.45 1652.7 188.45
L 1663.7 188.45
Q 1666.7 188.45 1666.7 185.45
L 1666.7 174.45
Q 1666.7 171.45 1663.7 171.45
L 1652.7 171.45
Q 1649.7 171.45 1649.7 174.45
L 1649.7 185.45 Z"/>
</g>

<g id="Layer0_1_FILL">
<path fill="#032B43" stroke="none" d="
M 31.65 8.45
Q 30.9 8.85 30.45 9.5 30.05 10.15 30 10.95 30.05 12.05 30.75 12.75 31.45 13.45 32.7 13.85 33.65 14.2 34.1 14.6 34.5 14.95 34.5 15.55 34.5 16.15 34.05 16.5 33.55 16.9 32.7 16.9 31.95 16.9 31.35 16.7 30.7 16.5 30.25 16.25
L 29.85 17.75
Q 30.15 17.95 30.55 18.1 31 18.2 31.5 18.3 32.05 18.4 32.55 18.4 33.85 18.4 34.7 17.95 35.55 17.55 35.95 16.9 36.35 16.2 36.35 15.4 36.35 14.35 35.75 13.6 35.1 12.9 33.8 12.45 32.8 12.05 32.3 11.7 31.85 11.35 31.85 10.8 31.85 10.5 32.05 10.2 32.2 9.95 32.6 9.75 32.95 9.6 33.55 9.6 34.25 9.6 34.75 9.75 35.25 9.9 35.5 10.05
L 35.95 8.6
Q 35.55 8.4 34.95 8.25 34.35 8.1 33.55 8.1 32.45 8.1 31.65 8.45
M 41.3 10.95
Q 40.95 11.05 40.7 11.2 40.4 11.35 40.2 11.55 39.95 11.75 39.8 12
L 39.75 12 39.75 7.7 37.95 7.7 37.95 18.25 39.75 18.25 39.75 13.95
Q 39.75 13.8 39.8 13.65 39.8 13.5 39.85 13.4 40 12.95 40.35 12.65 40.7 12.4 41.25 12.35 42 12.4 42.35 12.9 42.65 13.4 42.65 14.2
L 42.65 18.25 44.5 18.25 44.5 14
Q 44.45 12.85 44.1 12.15 43.75 11.45 43.15 11.15 42.6 10.85 41.95 10.85 41.6 10.85 41.3 10.95
M 49.7 10.85
Q 48.6 10.85 47.75 11.35 46.95 11.8 46.45 12.65 46 13.5 45.95 14.7 46 15.85 46.45 16.7 46.95 17.5 47.75 17.95 48.55 18.4 49.6 18.4 50.55 18.4 51.35 18 52.2 17.6 52.75 16.75 53.3 15.9 53.3 14.55 53.3 13.45 52.85 12.65 52.4 11.8 51.6 11.35 50.8 10.85 49.7 10.85
M 47.85 14.65
Q 47.85 14.05 48.05 13.45 48.25 12.9 48.65 12.55 49 12.2 49.65 12.2 50.3 12.2 50.7 12.55 51.05 12.95 51.25 13.5 51.4 14.05 51.4 14.6 51.4 15.35 51.2 15.9 50.95 16.45 50.55 16.75 50.2 17.1 49.65 17.1 49.1 17.1 48.7 16.75 48.3 16.45 48.05 15.9 47.85 15.35 47.85 14.65
M 64.8 11
L 63 11 62.2 14.25
Q 62.05 14.85 61.9 15.45 61.8 16.05 61.7 16.65 61.55 16.05 61.4 15.45 61.25 14.85 61.1 14.25
L 60.2 11 58.7 11 57.75 14.3
Q 57.6 14.85 57.45 15.45 57.3 16.05 57.2 16.65
L 57.15 16.65
Q 57.05 16.05 56.95 15.45 56.8 14.9 56.7 14.3
L 55.95 11 54.05 11 56.2 18.25 57.9 18.25 58.85 15.3
Q 59 14.8 59.15 14.2 59.25 13.65 59.4 13 59.55 13.65 59.65 14.2 59.8 14.75 59.95 15.3
L 60.8 18.25 62.5 18.25 64.8 11
M 74.85 9.75
L 74.85 8.25 69.05 8.25 69.05 18.25 70.9 18.25 70.9 14 74.55 14 74.55 12.5 70.9 12.5 70.9 9.75 74.85 9.75
M 76.45 11
Q 76.5 11.5 76.5 12.05 76.55 12.6 76.55 13.35
L 76.55 18.25 78.35 18.25 78.35 14.5
Q 78.35 14.35 78.35 14.2 78.4 14.05 78.4 13.95 78.55 13.35 78.95 12.95 79.4 12.6 80.05 12.55 80.2 12.55 80.35 12.6 80.45 12.6 80.6 12.65
L 80.6 10.9
Q 80.45 10.9 80.4 10.9 80.3 10.85 80.15 10.85 79.55 10.85 79 11.25 78.45 11.65 78.15 12.4
L 78.1 12.4 78.05 11 76.45 11
M 83.1 12.3
Q 83.6 12.15 84.15 12.15 84.75 12.15 85.1 12.35 85.4 12.6 85.5 12.9 85.6 13.15 85.6 13.4
L 85.6 13.55
Q 83.6 13.5 82.45 14.2 81.35 14.9 81.3 16.25 81.3 16.8 81.6 17.3 81.85 17.8 82.35 18.1 82.85 18.4 83.6 18.4 84.3 18.4 84.85 18.15 85.4 17.85 85.75 17.45
L 85.8 17.45 85.9 18.25 87.55 18.25
Q 87.5 17.9 87.45 17.45 87.45 17 87.45 16.5
L 87.45 13.9
Q 87.45 13.1 87.2 12.4 86.9 11.7 86.25 11.3 85.6 10.9 84.45 10.85 83.6 10.85 82.9 11.05 82.25 11.25 81.85 11.5
L 82.2 12.7
Q 82.6 12.45 83.1 12.3
M 84.45 14.8
Q 85 14.7 85.65 14.7
L 85.65 15.7
Q 85.65 15.8 85.65 15.9 85.65 16 85.6 16.1 85.45 16.5 85.1 16.8 84.7 17.1 84.15 17.1 83.75 17.1 83.45 16.85 83.15 16.6 83.15 16.05 83.15 15.5 83.5 15.25 83.85 14.9 84.45 14.8
M 93.95 10.95
Q 93.45 10.85 92.95 10.85 91.65 10.9 90.75 11.4 89.9 11.9 89.4 12.75 88.95 13.6 88.9 14.7 88.95 15.85 89.4 16.65 89.85 17.5 90.7 17.95 91.5 18.4 92.65 18.4 93.35 18.4 93.85 18.25 94.4 18.15 94.7 18.05
L 94.45 16.65
Q 94.2 16.8 93.85 16.85 93.5 16.95 93 16.95 92.35 16.95 91.9 16.7 91.4 16.4 91.1 15.9 90.8 15.35 90.8 14.65 90.8 13.95 91.05 13.45 91.3 12.9 91.8 12.6 92.3 12.3 93 12.3 93.5 12.3 93.85 12.4 94.15 12.45 94.4 12.55
L 94.7 11.2
Q 94.4 11.05 93.95 10.95
M 98.1 8.95
L 96.35 9.4 96.35 11 95.3 11 95.3 12.4 96.35 12.4 96.35 15.8
Q 96.35 16.5 96.5 17 96.6 17.5 96.9 17.8 97.15 18.1 97.55 18.25 97.95 18.4 98.5 18.4 98.9 18.4 99.25 18.35 99.6 18.3 99.8 18.2
L 99.75 16.8
Q 99.65 16.85 99.45 16.9 99.3 16.9 99.05 16.9 98.55 16.9 98.35 16.55 98.1 16.25 98.1 15.55
L 98.1 12.4 99.85 12.4 99.85 11 98.1 11 98.1 8.95
M 108.3 10.85
Q 107.2 10.85 106.35 11.35 105.55 11.8 105.05 12.65 104.6 13.5 104.55 14.7 104.6 15.85 105.05 16.7 105.55 17.5 106.35 17.95 107.15 18.4 108.2 18.4 109.15 18.4 109.95 18 110.8 17.6 111.35 16.75 111.9 15.9 111.9 14.55 111.9 13.45 111.45 12.65 111 11.8 110.2 11.35 109.4 10.85 108.3 10.85
M 109.3 12.55
Q 109.65 12.95 109.85 13.5 110 14.05 110 14.6 110 15.35 109.8 15.9 109.55 16.45 109.15 16.75 108.8 17.1 108.25 17.1 107.7 17.1 107.3 16.75 106.9 16.45 106.65 15.9 106.45 15.35 106.45 14.65 106.45 14.05 106.65 13.45 106.85 12.9 107.25 12.55 107.6 12.2 108.25 12.2 108.9 12.2 109.3 12.55
M 103.05 11
L 101.25 11 101.25 18.25 103.05 18.25 103.05 11
M 103.2 9
Q 103.15 8.55 102.9 8.3 102.65 8 102.15 8 101.7 8 101.4 8.3 101.15 8.55 101.15 9 101.15 9.4 101.4 9.7 101.7 9.95 102.15 10 102.6 9.95 102.9 9.7 103.15 9.4 103.2 9
M 113.35 11
Q 113.4 11.5 113.4 12 113.45 12.55 113.45 13.15
L 113.45 18.25 115.25 18.25 115.25 14
Q 115.25 13.85 115.3 13.7 115.3 13.55 115.35 13.4 115.5 13 115.85 12.65 116.2 12.35 116.75 12.35 117.5 12.35 117.85 12.85 118.15 13.4 118.15 14.15
L 118.15 18.25 120 18.25 120 13.95
Q 119.95 12.85 119.6 12.15 119.2 11.45 118.65 11.15 118.05 10.85 117.4 10.85 116.8 10.85 116.35 11.05 115.9 11.25 115.6 11.55 115.25 11.8 115.1 12.1
L 115.05 12.1 114.95 11 113.35 11
M 124.45 12.15
Q 124.9 12.15 125.3 12.3 125.75 12.45 125.95 12.6
L 126.3 11.3
Q 126 11.1 125.5 11 125 10.85 124.4 10.85 123.55 10.85 122.95 11.15 122.35 11.45 122 12 121.7 12.5 121.7 13.15 121.65 13.75 122.15 14.3 122.6 14.85 123.65 15.25 124.3 15.45 124.6 15.7 124.85 15.95 124.85 16.3 124.85 16.65 124.6 16.85 124.3 17.1 123.7 17.1 123.2 17.1 122.7 16.9 122.15 16.75 121.85 16.55
L 121.5 17.9
Q 121.9 18.1 122.45 18.25 123 18.4 123.7 18.4 124.65 18.4 125.3 18.1 125.95 17.8 126.3 17.3 126.6 16.8 126.6 16.15 126.6 15.35 126.15 14.8 125.65 14.3 124.7 13.95 124 13.7 123.7 13.5 123.4 13.25 123.45 12.9 123.45 12.6 123.7 12.4 123.95 12.15 124.45 12.15 Z"/>
</g>
</defs>

<g transform="matrix( 1, 0, 0, 1, -1648.95,-168.8) ">
<use xlink:href="#Layer0_0_MEMBER_0_FILL"/>
</g>

<g transform="matrix( 1, 0, 0, 1, 0,-0.3) ">
<use xlink:href="#Layer0_1_FILL"/>
</g>
</svg>
