
<svg xmlns="http://www.w3.org/2000/svg" version="1.1" xmlns:xlink="http://www.w3.org/1999/xlink" preserveAspectRatio="none" x="0px" y="0px" width="33px" height="45px" viewBox="0 0 33 45">
<defs>
<g id="Layer0_0_MEMBER_0_FILL">
<path fill="#EE3496" stroke="none" d="
M 1779.25 573.85
L 1779.25 618.45 1811.35 618.45 1811.35 573.85 1779.25 573.85 Z"/>
</g>

<g id="Layer0_0_MEMBER_1_FILL">
<path fill="#9C9C9C" stroke="none" d="
M 62.7 93.95
L 62.7 246.95 173.7 246.95 173.7 93.95 62.7 93.95
M 170.7 96.95
L 170.7 243.95 65.7 243.95 65.7 96.95 170.7 96.95 Z"/>
</g>

<g id="Layer0_0_MEMBER_2_FILL">
<path fill="#FFFFFF" stroke="none" d="
M 98.1 167.5
L 98.1 171.25 136.25 171.25 136.25 167.5 98.1 167.5 Z"/>
</g>

<g id="Layer0_0_MEMBER_3_FILL">
<path fill="#FFFFFF" stroke="none" d="
M 1804.75 600.9
Q 1803.85 600.95 1803.15 601.25 1802.5 601.55 1802.05 602.1 1801.65 602.65 1801.65 603.4 1801.65 604 1802 604.5 1802.3 605 1802.95 605.3
L 1802.95 605.35
Q 1802.2 605.7 1801.8 606.25 1801.4 606.8 1801.35 607.55 1801.35 608.15 1801.7 608.7 1802.05 609.3 1802.8 609.65 1803.5 610 1804.65 610 1805.65 610 1806.4 609.7 1807.15 609.35 1807.6 608.75 1808 608.15 1808 607.35 1808 606.8 1807.8 606.35 1807.55 605.9 1807.2 605.6 1806.85 605.3 1806.4 605.15
L 1806.4 605.1
Q 1807.05 604.8 1807.35 604.3 1807.7 603.75 1807.7 603.2 1807.7 602.65 1807.4 602.1 1807.05 601.6 1806.45 601.3 1805.8 600.95 1804.75 600.9
M 1805.3 602.5
Q 1805.5 602.65 1805.65 602.9 1805.75 603.1 1805.75 603.4 1805.7 603.8 1805.45 604.1 1805.2 604.4 1804.85 604.5 1804.3 604.35 1803.95 604.05 1803.6 603.75 1803.6 603.35 1803.6 602.9 1803.85 602.6 1804.15 602.35 1804.7 602.3 1805.05 602.3 1805.3 602.5
M 1805.9 607.5
Q 1805.9 607.95 1805.6 608.3 1805.25 608.6 1804.7 608.6 1804.3 608.6 1804.05 608.4 1803.75 608.25 1803.6 607.95 1803.45 607.7 1803.45 607.35 1803.45 606.9 1803.75 606.55 1804 606.2 1804.55 606.05 1805.15 606.2 1805.55 606.55 1805.9 606.95 1805.9 607.5
M 1804.15 590.45
L 1806.1 590.45 1806.1 581.65 1804.4 581.65 1802.05 582.75 1802.4 584.3 1804.1 583.5 1804.15 583.5 1804.15 590.45 Z"/>
</g>
</defs>

<g transform="matrix( 1, 0, 0, 1, -1778.8,-573.4) ">
<use xlink:href="#Layer0_0_MEMBER_0_FILL"/>
</g>

<g transform="matrix( 0.29730224609375, 0, 0, 0.2973785400390625, -18.65,-27.95) ">
<use xlink:href="#Layer0_0_MEMBER_1_FILL"/>
</g>

<g transform="matrix( 0.29730224609375, 0, 0, 0.2973785400390625, -18.65,-27.95) ">
<use xlink:href="#Layer0_0_MEMBER_2_FILL"/>
</g>

<g transform="matrix( 1, 0, 0, 1, -1788.1,-573.25) ">
<use xlink:href="#Layer0_0_MEMBER_3_FILL"/>
</g>
</svg>
