
<svg xmlns="http://www.w3.org/2000/svg" version="1.1" xmlns:xlink="http://www.w3.org/1999/xlink" preserveAspectRatio="none" x="0px" y="0px" width="53px" height="46px" viewBox="0 0 53 46">
<defs>
<g id="Layer0_0_MEMBER_0_FILL">
<path fill="#309B47" stroke="none" d="
M 96.65 84.8
L 96.65 234.8 269.45 234.8 269.45 84.8 96.65 84.8 Z"/>
</g>

<g id="Layer0_0_MEMBER_1_FILL">
<path fill="#9C9C9C" stroke="none" d="
M 95.15 83.3
L 95.15 236.3 270.95 236.3 270.95 83.3 95.15 83.3
M 267.95 86.3
L 267.95 233.3 98.15 233.3 98.15 86.3 267.95 86.3 Z"/>
</g>

<g id="Layer0_0_MEMBER_2_FILL">
<path fill="#FFFFFF" stroke="none" d="
M 165.05 154.55
L 165.05 158.3 203.2 158.3 203.2 154.55 165.05 154.55 Z"/>
</g>

<g id="Layer0_0_MEMBER_3_FILL">
<path fill="#FFFFFF" stroke="none" d="
M 1808.75 512.95
L 1808.75 511.25 1803.85 511.25 1803.25 515.9
Q 1803.55 515.85 1803.8 515.85 1804.1 515.85 1804.45 515.85 1805.8 515.85 1806.4 516.2 1807 516.6 1806.95 517.3 1806.95 517.8 1806.7 518.1 1806.45 518.4 1806.05 518.55 1805.65 518.65 1805.2 518.65 1804.55 518.65 1804.05 518.5 1803.5 518.4 1803.15 518.25
L 1802.8 519.8
Q 1803.2 520 1803.8 520.15 1804.45 520.3 1805.3 520.3 1806.5 520.3 1807.35 519.85 1808.2 519.45 1808.65 518.7 1809.1 518 1809.1 517.15 1809.1 516.4 1808.8 515.85 1808.55 515.3 1808 514.95 1807.55 514.6 1806.95 514.45 1806.35 514.3 1805.7 514.3 1805.5 514.3 1805.4 514.3 1805.25 514.3 1805.1 514.3
L 1805.3 512.95 1808.75 512.95
M 1807.5 491.55
L 1805.75 491.55 1803.4 492.65 1803.75 494.2 1805.45 493.4 1805.45 500.45 1807.5 500.45 1807.5 491.55 Z"/>
</g>
</defs>

<g transform="matrix( 0.3014678955078125, 0, 0, 0.3016204833984375, -28.65,-25.05) ">
<use xlink:href="#Layer0_0_MEMBER_0_FILL"/>
</g>

<g transform="matrix( 0.3014678955078125, 0, 0, 0.3016204833984375, -28.65,-25.05) ">
<use xlink:href="#Layer0_0_MEMBER_1_FILL"/>
</g>

<g transform="matrix( 0.3014678955078125, 0, 0, 0.3016204833984375, -28.65,-25.05) ">
<use xlink:href="#Layer0_0_MEMBER_2_FILL"/>
</g>

<g transform="matrix( 1, 0, 0, 1, -1778.75,-483.75) ">
<use xlink:href="#Layer0_0_MEMBER_3_FILL"/>
</g>
</svg>
