
<svg xmlns="http://www.w3.org/2000/svg" version="1.1" xmlns:xlink="http://www.w3.org/1999/xlink" preserveAspectRatio="none" x="0px" y="0px" width="1184px" height="90px" viewBox="0 0 1184 90">
<defs>
<g id="Layer0_0_MEMBER_0_MEMBER_0_FILL">
<path fill="#293C4E" stroke="none" d="
M 1184.75 31.2
L 1184.75 28.2 0.75 28.2 0.75 31.2 1184.75 31.2 Z"/>
</g>

<g id="Layer0_0_MEMBER_0_MEMBER_1_FILL">
<path fill="#293C4E" stroke="none" d="
M 1.5 0.05
L 0 0.05 0 61 1.5 61 1.5 0.05 Z"/>
</g>

<g id="Layer0_0_MEMBER_0_MEMBER_2_FILL">
<path fill="#293C4E" stroke="none" d="
M 1185.5 0.05
L 1184 0.05 1184 61 1185.5 61 1185.5 0.05 Z"/>
</g>

<g id="Layer0_0_MEMBER_0_MEMBER_3_FILL">
<path fill="#293C4E" stroke="none" d="
M 593.5 0.05
L 592 0.05 592 61 593.5 61 593.5 0.05 Z"/>
</g>

<g id="Layer0_0_MEMBER_1_FILL">
<path fill="#042A43" stroke="none" d="
M 272.2 170.3
Q 270.75 169.15 268.55 169.1 266.45 169.1 264.95 170.3 263.45 171.5 262.7 173.6 261.9 175.7 261.9 178.55 261.9 181.35 262.65 183.45 263.4 185.55 264.85 186.7 266.25 187.85 268.35 187.9 270.55 187.9 272 186.75 273.5 185.6 274.25 183.45 275 181.3 275 178.4 275 175.7 274.3 173.6 273.6 171.5 272.2 170.3
M 270.8 173.5
Q 271.55 175.25 271.55 178.45 271.55 181.75 270.8 183.5 270 185.25 268.5 185.25 267.05 185.25 266.2 183.55 265.4 181.85 265.4 178.55 265.4 175.15 266.25 173.45 267.1 171.75 268.5 171.75 270.05 171.75 270.8 173.5
M 847.6 172.35
L 848.15 174.95 851.5 173.25 851.55 173.25 851.55 188.35 854.9 188.35 854.9 170.15 852 170.15 847.6 172.35
M 1443.6 170.8
Q 1442.25 170.1 1440.25 170.05 1438.5 170.05 1437.1 170.6 1435.65 171.1 1434.65 171.95
L 1435.65 174.35
Q 1436.35 173.8 1437.35 173.35 1438.35 172.9 1439.55 172.85 1440.75 172.85 1441.45 173.3 1442.15 173.7 1442.5 174.4 1442.8 175.1 1442.8 175.9 1442.8 177.1 1442.1 178.3 1441.4 179.55 1440 181 1438.6 182.5 1436.45 184.45
L 1434.3 186.45 1434.3 188.55 1446.65 188.55 1446.65 185.7 1439.2 185.7 1439.2 185.65 1440.8 184.25
Q 1442.35 182.8 1443.6 181.4 1444.85 180 1445.55 178.6 1446.25 177.15 1446.25 175.55 1446.25 174.05 1445.6 172.8 1444.95 171.55 1443.6 170.8 Z"/>
</g>
</defs>

<g transform="matrix( 0.989990234375, 0, 0, 0.989990234375, 4.15,29.9) ">
<use xlink:href="#Layer0_0_MEMBER_0_MEMBER_0_FILL"/>
</g>

<g transform="matrix( 0.989990234375, 0, 0, 0.989990234375, 4.15,29.9) ">
<use xlink:href="#Layer0_0_MEMBER_0_MEMBER_1_FILL"/>
</g>

<g transform="matrix( 0.989990234375, 0, 0, 0.989990234375, 4.15,29.9) ">
<use xlink:href="#Layer0_0_MEMBER_0_MEMBER_2_FILL"/>
</g>

<g transform="matrix( 0.989990234375, 0, 0, 0.989990234375, 4.15,29.9) ">
<use xlink:href="#Layer0_0_MEMBER_0_MEMBER_3_FILL"/>
</g>

<g transform="matrix( 1, 0, 0, 1, -261.9,-169.1) ">
<use xlink:href="#Layer0_0_MEMBER_1_FILL"/>
</g>
</svg>
