
<svg xmlns="http://www.w3.org/2000/svg" version="1.1" xmlns:xlink="http://www.w3.org/1999/xlink" preserveAspectRatio="none" x="0px" y="0px" width="261px" height="46px" viewBox="0 0 261 46">
<defs>
<g id="Layer0_0_MEMBER_0_FILL">
<path fill="#0F6735" stroke="none" d="
M 1863.5 300.05
L 1863.5 254.9 1603.4 254.9 1603.4 300.05 1863.5 300.05 Z"/>
</g>

<g id="Layer0_0_MEMBER_1_FILL">
<path fill="#9C9C9C" stroke="none" d="
M 946.75 209.5
L 946.75 56.5 79.75 56.5 79.75 209.5 946.75 209.5
M 943.75 59.5
L 943.75 206.5 82.75 206.5 82.7 59.5 943.75 59.5 Z"/>
</g>

<g id="Layer0_0_MEMBER_2_MEMBER_0_FILL">
<path fill="#FFFFFF" stroke="none" d="
M 506.45 118.7
L 506.6 118.7 506.6 156.3 517.3 156.3 517.3 108.85 508.1 108.85 495.55 114.7 497.4 123 506.45 118.7 Z"/>
</g>
</defs>

<g transform="matrix( 1, 0, 0, 1, -1602.95,-254.45) ">
<use xlink:href="#Layer0_0_MEMBER_0_FILL"/>
</g>

<g transform="matrix( 0.3010406494140625, 0, 0, 0.3009796142578125, -24,-17) ">
<use xlink:href="#Layer0_0_MEMBER_1_FILL"/>
</g>

<g transform="matrix( 0.3010406494140625, 0, 0, 0.3009796142578125, -24,-17) ">
<use xlink:href="#Layer0_0_MEMBER_2_MEMBER_0_FILL"/>
</g>
</svg>
