
<svg xmlns="http://www.w3.org/2000/svg" version="1.1" xmlns:xlink="http://www.w3.org/1999/xlink" preserveAspectRatio="none" x="0px" y="0px" width="17px" height="45px" viewBox="0 0 17 45">
<defs>
<g id="Layer0_0_MEMBER_0_FILL">
<path fill="#0A70B8" stroke="none" d="
M 1777.5 710.6
L 1761.4 710.6 1761.4 755.35 1777.5 755.35 1777.5 710.6 Z"/>
</g>

<g id="Layer0_0_MEMBER_1_FILL">
<path fill="#9C9C9C" stroke="none" d="
M 101.15 61.1
L 44.15 61.1 44.15 214.1 101.15 214.1 101.15 61.1
M 47.15 64.1
L 98.15 64.1 98.15 211.1 47.15 211.1 47.15 64.1 Z"/>
</g>

<g id="Layer0_0_MEMBER_2_FILL">
<path fill="#FFFFFF" stroke="none" d="
M 52.2 134.65
L 52.2 138.4 90.35 138.4 90.35 134.65 52.2 134.65 Z"/>
</g>

<g id="Layer0_0_MEMBER_3_FILL">
<path fill="#FFFFFF" stroke="none" d="
M 1750.9 741.6
L 1750.85 741.6
Q 1750.95 741.1 1751.3 740.65 1751.65 740.2 1752.25 739.9 1752.8 739.6 1753.75 739.5 1753.95 739.5 1754.15 739.5 1754.35 739.5 1754.5 739.5
L 1754.5 737.9
Q 1754.4 737.9 1754.2 737.9 1754 737.9 1753.7 737.9 1752.65 737.95 1751.8 738.3 1750.95 738.6 1750.3 739.2 1749.55 739.9 1749.15 740.9 1748.75 741.9 1748.75 743.15 1748.75 744.2 1749.1 745.05 1749.5 745.95 1750.3 746.45 1751.05 747 1752.25 747 1753.2 747 1753.95 746.55 1754.65 746.15 1755.1 745.4 1755.5 744.7 1755.5 743.8 1755.5 742.9 1755.1 742.25 1754.75 741.6 1754.15 741.25 1753.5 740.9 1752.75 740.9 1752.15 740.9 1751.7 741.1 1751.2 741.3 1750.9 741.6
M 1752.8 742.6
Q 1753.1 742.8 1753.25 743.15 1753.4 743.5 1753.4 743.9 1753.4 744.6 1753.1 745 1752.75 745.45 1752.25 745.45
L 1752.2 745.45
Q 1751.75 745.45 1751.45 745.2 1751.1 745 1750.95 744.55 1750.8 744.15 1750.8 743.7 1750.8 743.5 1750.8 743.4 1750.85 743.25 1750.85 743.15 1751 742.85 1751.35 742.6 1751.65 742.4 1752.1 742.4 1752.55 742.4 1752.8 742.6
M 1747.35 738
L 1745.65 738 1743.3 739.1 1743.65 740.65 1745.35 739.85 1745.4 739.85 1745.4 746.85 1747.35 746.85 1747.35 738
M 1748.95 727.35
L 1750.95 727.35 1750.95 718.55 1749.25 718.55 1746.9 719.6 1747.25 721.15 1748.9 720.35 1748.95 720.35 1748.95 727.35 Z"/>
</g>
</defs>

<g transform="matrix( 1, 0, 0, 1, -1760.95,-710.15) ">
<use xlink:href="#Layer0_0_MEMBER_0_FILL"/>
</g>

<g transform="matrix( 0.298248291015625, 0, 0, 0.2983551025390625, -13.15,-18.25) ">
<use xlink:href="#Layer0_0_MEMBER_1_FILL"/>
</g>

<g transform="matrix( 0.298248291015625, 0, 0, 0.2983551025390625, -13.15,-18.25) ">
<use xlink:href="#Layer0_0_MEMBER_2_FILL"/>
</g>

<g transform="matrix( 1, 0, 0, 1, -1741,-710.15) ">
<use xlink:href="#Layer0_0_MEMBER_3_FILL"/>
</g>
</svg>
