
<svg xmlns="http://www.w3.org/2000/svg" version="1.1" xmlns:xlink="http://www.w3.org/1999/xlink" preserveAspectRatio="none" x="0px" y="0px" width="44px" height="45px" viewBox="0 0 44 45">
<defs>
<g id="Layer0_0_MEMBER_0_FILL">
<path fill="#FDCE0B" stroke="none" d="
M 2004.85 671.95
L 2004.85 521.95 1860.85 521.95 1860.85 671.95 2004.85 671.95 Z"/>
</g>

<g id="Layer0_0_MEMBER_1_FILL">
<path fill="#9C9C9C" stroke="none" d="
M 83.4 96.3
L 83.4 249.3 230.4 249.3 230.4 96.3 83.4 96.3
M 227.4 99.3
L 227.4 246.3 86.4 246.3 86.4 99.3 227.4 99.3 Z"/>
</g>

<g id="Layer0_0_MEMBER_2_FILL">
<path fill="#606163" stroke="none" d="
M 173.8 172.15
L 173.8 168.4 135.65 168.4 135.65 172.15 173.8 172.15 Z"/>
</g>

<g id="Layer0_0_MEMBER_3_FILL">
<path fill="#606163" stroke="none" d="
M 1675.25 600.35
Q 1675.1 600.35 1674.8 600.35 1673.75 600.4 1672.9 600.75 1672.05 601.05 1671.35 601.65 1670.65 602.35 1670.25 603.35 1669.8 604.35 1669.8 605.6 1669.8 606.7 1670.2 607.55 1670.6 608.45 1671.35 608.95 1672.15 609.45 1673.3 609.5 1674.3 609.45 1675 609.05 1675.75 608.6 1676.15 607.9 1676.6 607.15 1676.6 606.3 1676.6 605.35 1676.2 604.7 1675.85 604.05 1675.25 603.7 1674.6 603.4 1673.85 603.4 1673.2 603.4 1672.75 603.55 1672.3 603.75 1671.95 604.1
L 1671.9 604.1
Q 1672.05 603.55 1672.35 603.1 1672.7 602.7 1673.3 602.35 1673.9 602.05 1674.85 601.95 1675.05 601.95 1675.25 601.95 1675.45 601.95 1675.6 601.95
L 1675.6 600.35
Q 1675.45 600.35 1675.25 600.35
M 1671.95 605.65
Q 1672.1 605.3 1672.4 605.1 1672.75 604.9 1673.15 604.85 1673.6 604.9 1673.9 605.05 1674.2 605.3 1674.35 605.6 1674.5 605.95 1674.5 606.4 1674.5 607.1 1674.15 607.5 1673.85 607.95 1673.3 607.95 1672.8 607.95 1672.5 607.7 1672.2 607.45 1672.05 607.05 1671.9 606.65 1671.85 606.2 1671.85 606 1671.9 605.85 1671.9 605.75 1671.95 605.65
M 1672.6 589.8
L 1674.6 589.8 1674.6 580.95 1672.9 580.95 1670.55 582 1670.9 583.6 1672.6 582.75 1672.6 589.8 Z"/>
</g>
</defs>

<g transform="matrix( 0.29931640625, 0, 0, 0.299346923828125, -556.5,-155.75) ">
<use xlink:href="#Layer0_0_MEMBER_0_FILL"/>
</g>

<g transform="matrix( 0.29931640625, 0, 0, 0.299346923828125, -24.95,-28.85) ">
<use xlink:href="#Layer0_0_MEMBER_1_FILL"/>
</g>

<g transform="matrix( 0.29931640625, 0, 0, 0.299346923828125, -24.95,-28.85) ">
<use xlink:href="#Layer0_0_MEMBER_2_FILL"/>
</g>

<g transform="matrix( 1, 0, 0, 1, -1651.4,-572.95) ">
<use xlink:href="#Layer0_0_MEMBER_3_FILL"/>
</g>
</svg>
