
<svg xmlns="http://www.w3.org/2000/svg" version="1.1" xmlns:xlink="http://www.w3.org/1999/xlink" preserveAspectRatio="none" x="0px" y="0px" width="27px" height="46px" viewBox="0 0 27 46">
<defs>
<g id="Layer0_0_MEMBER_0_FILL">
<path fill="#983695" stroke="none" d="
M 1689 652.55
L 1689 697.85 1715.1 697.85 1715.1 652.55 1689 652.55 Z"/>
</g>

<g id="Layer0_0_MEMBER_1_FILL">
<path fill="#9C9C9C" stroke="none" d="
M 76.6 72.35
L 76.6 225.35 166 225.35 166 72.35 76.6 72.35
M 163 75.35
L 163 222.35 79.6 222.35 79.6 75.35 163 75.35 Z"/>
</g>

<g id="Layer0_0_MEMBER_2_FILL">
<path fill="#FFFFFF" stroke="none" d="
M 141.15 147.3
L 141.15 143.55 103 143.55 103 147.3 141.15 147.3 Z"/>
</g>

<g id="Layer0_0_MEMBER_3_FILL">
<path fill="#FFFFFF" stroke="none" d="
M 1678.8 681.3
Q 1678.4 682.35 1678.4 683.65 1678.4 684.9 1678.75 685.95 1679.1 687 1679.85 687.6 1680.6 688.25 1681.75 688.25 1682.9 688.25 1683.65 687.65 1684.4 687.05 1684.75 686 1685.15 684.95 1685.15 683.6 1685.15 682.65 1684.95 681.85 1684.75 681 1684.4 680.4 1684 679.75 1683.35 679.4 1682.7 679 1681.8 679 1680.65 679 1679.9 679.65 1679.15 680.25 1678.8 681.3
M 1682.75 681.35
Q 1683.05 682.15 1683.05 683.6 1683.05 685.15 1682.75 685.9 1682.4 686.65 1681.8 686.65 1681.2 686.65 1680.85 685.9 1680.5 685.15 1680.5 683.65 1680.5 682.1 1680.85 681.35 1681.2 680.6 1681.8 680.6 1682.4 680.6 1682.75 681.35
M 1674.05 679.15
L 1671.65 680.25 1672 681.85 1673.7 681 1673.75 681 1673.75 688.1 1675.75 688.1 1675.75 679.15 1674.05 679.15
M 1677.7 661.3
L 1677.75 661.3 1677.75 668.35 1679.75 668.35 1679.75 659.45 1678.05 659.45 1675.65 660.55 1676 662.1 1677.7 661.3 Z"/>
</g>
</defs>

<g transform="matrix( 1, 0, 0, 1, -1688.55,-652.1) ">
<use xlink:href="#Layer0_0_MEMBER_0_FILL"/>
</g>

<g transform="matrix( 0.3020172119140625, 0, 0, 0.3019561767578125, -23.15,-21.85) ">
<use xlink:href="#Layer0_0_MEMBER_1_FILL"/>
</g>

<g transform="matrix( 0.3020172119140625, 0, 0, 0.3019561767578125, -23.15,-21.85) ">
<use xlink:href="#Layer0_0_MEMBER_2_FILL"/>
</g>

<g transform="matrix( 1, 0, 0, 1, -1664.2,-651.7) ">
<use xlink:href="#Layer0_0_MEMBER_3_FILL"/>
</g>
</svg>
