
<svg xmlns="http://www.w3.org/2000/svg" version="1.1" xmlns:xlink="http://www.w3.org/1999/xlink" preserveAspectRatio="none" x="0px" y="0px" width="87px" height="45px" viewBox="0 0 87 45">
<defs>
<g id="Layer0_0_MEMBER_0_FILL">
<path fill="#EE383A" stroke="none" d="
M 1562.6 608.35
L 1562.6 458.35 1274.6 458.35 1274.6 608.35 1562.6 608.35 Z"/>
</g>

<g id="Layer0_0_MEMBER_1_FILL">
<path fill="#9C9C9C" stroke="none" d="
M 360.45 224.95
L 360.45 71.95 69.45 71.95 69.45 224.95 360.45 224.95
M 357.45 74.95
L 357.45 221.95 72.45 221.95 72.45 74.95 357.45 74.95 Z"/>
</g>

<g id="Layer0_0_MEMBER_2_FILL">
<path fill="#FFFFFF" stroke="none" d="
M 235.3 146.85
L 235.3 143.1 197.15 143.1 197.15 146.85 235.3 146.85 Z"/>
</g>

<g id="Layer0_0_MEMBER_3_FILL">
<path fill="#FFFFFF" stroke="none" d="
M 1807.85 424.4
Q 1807.85 423.8 1807.55 423.3 1807.2 422.8 1806.55 422.5 1805.9 422.2 1804.95 422.2 1804.05 422.2 1803.35 422.4 1802.6 422.6 1802.2 422.85
L 1802.6 424.35
Q 1802.9 424.2 1803.4 424 1803.9 423.85 1804.45 423.85 1805.1 423.85 1805.45 424.1 1805.8 424.35 1805.8 424.75 1805.75 425.15 1805.5 425.35 1805.3 425.55 1804.9 425.65 1804.55 425.75 1804.2 425.8
L 1803.4 425.8 1803.4 427.25 1804.25 427.25
Q 1804.7 427.25 1805.1 427.4 1805.5 427.55 1805.75 427.8 1806 428.1 1806 428.55 1806 429.05 1805.6 429.35 1805.2 429.7 1804.4 429.7 1803.75 429.7 1803.2 429.5 1802.65 429.3 1802.35 429.15
L 1801.9 430.7
Q 1802.3 430.95 1803 431.15 1803.7 431.35 1804.55 431.35 1805.7 431.35 1806.5 431 1807.3 430.65 1807.75 430.05 1808.15 429.4 1808.15 428.65 1808.15 428.05 1807.9 427.6 1807.65 427.15 1807.2 426.85 1806.8 426.6 1806.25 426.5
L 1806.25 426.45
Q 1807.05 426.15 1807.45 425.65 1807.85 425.1 1807.85 424.4
M 1804.6 411.7
L 1806.6 411.7 1806.6 402.85 1804.9 402.85 1802.55 403.95 1802.9 405.5 1804.6 404.7 1804.6 411.7 Z"/>
</g>
</defs>

<g transform="matrix( 0.2989654541015625, 0, 0, 0.29901123046875, -380.55,-136.55) ">
<use xlink:href="#Layer0_0_MEMBER_0_FILL"/>
</g>

<g transform="matrix( 0.2989654541015625, 0, 0, 0.29901123046875, -20.75,-21.5) ">
<use xlink:href="#Layer0_0_MEMBER_1_FILL"/>
</g>

<g transform="matrix( 0.2989654541015625, 0, 0, 0.29901123046875, -20.75,-21.5) ">
<use xlink:href="#Layer0_0_MEMBER_2_FILL"/>
</g>

<g transform="matrix( 1, 0, 0, 1, -1760.85,-395.2) ">
<use xlink:href="#Layer0_0_MEMBER_3_FILL"/>
</g>
</svg>
