
<svg xmlns="http://www.w3.org/2000/svg" version="1.1" xmlns:xlink="http://www.w3.org/1999/xlink" preserveAspectRatio="none" x="0px" y="0px" width="320px" height="850px" viewBox="0 0 320 850">
<defs>
<g id="Layer0_0_MEMBER_0_FILL">
<path fill="#323C42" stroke="none" d="
M 1872.3 151.1
Q 1872.3 137.6 1858.8 137.6
L 1605.8 137.6
Q 1592.3 137.6 1592.3 151.1
L 1592.3 935.1
Q 1592.3 948.6 1605.8 948.6
L 1858.8 948.6
Q 1872.3 948.6 1872.3 935.1
L 1872.3 151.1
M 1858.8 140.6
Q 1869.3 140.6 1869.3 151.1
L 1869.3 935.1
Q 1869.3 945.6 1858.8 945.6
L 1605.8 945.6
Q 1595.3 945.6 1595.3 935.1
L 1595.3 151.1
Q 1595.3 140.6 1605.8 140.6
L 1858.8 140.6 Z"/>

<path fill="#A3AEB5" stroke="none" d="
M 1869.3 151.1
Q 1869.3 140.6 1858.8 140.6
L 1605.8 140.6
Q 1595.3 140.6 1595.3 151.1
L 1595.3 935.1
Q 1595.3 945.6 1605.8 945.6
L 1858.8 945.6
Q 1869.3 945.6 1869.3 935.1
L 1869.3 151.1 Z"/>
</g>

<g id="Layer0_0_MEMBER_1_FILL">
<path fill="#2A658E" stroke="none" d="
M 1894.25 132.05
Q 1894.25 123.1 1888.55 119.9
L 1888.55 119.6
Q 1885.3 117.75 1880.25 117.75
L 1588.25 117.75
Q 1574.25 117.75 1574.25 131.75
L 1574.25 953.75
Q 1574.25 967.75 1588.25 967.75
L 1880.25 967.75
Q 1894.25 967.75 1894.25 953.75
L 1894.25 132.05
M 1880.25 121.75
Q 1886.15 121.75 1888.55 125.2
L 1888.55 125.5
Q 1890.25 127.95 1890.25 132.05
L 1890.25 953.75
Q 1890.25 963.75 1880.25 963.75
L 1588.25 963.75
Q 1578.25 963.75 1578.25 953.75
L 1578.25 131.75
Q 1578.25 121.75 1588.25 121.75
L 1880.25 121.75 Z"/>
</g>
</defs>

<g transform="matrix( 1, 0, 0, 1, -1573.15,-116.05) ">
<use xlink:href="#Layer0_0_MEMBER_0_FILL"/>
</g>

<g transform="matrix( 1, 0, 0, 1, -1574.25,-117.75) ">
<use xlink:href="#Layer0_0_MEMBER_1_FILL"/>
</g>
</svg>
