
<svg xmlns="http://www.w3.org/2000/svg" version="1.1" xmlns:xlink="http://www.w3.org/1999/xlink" preserveAspectRatio="none" x="0px" y="0px" width="22px" height="46px" viewBox="0 0 22 46">
<defs>
<g id="Layer0_0_MEMBER_0_FILL">
<path fill="#9C9C9C" stroke="none" d="
M 1836.05 651.9
L 1814.05 651.9 1814.05 697.9 1836.05 697.9 1836.05 651.9
M 1814.9 652.8
L 1835.15 652.8 1835.15 697.05 1814.9 697.05 1814.9 652.8 Z"/>

<path fill="#D1A29A" stroke="none" d="
M 1835.15 652.8
L 1814.9 652.8 1814.9 697.05 1835.15 697.05 1835.15 652.8 Z"/>
</g>

<g id="Layer0_0_MEMBER_1_FILL">
<path fill="#606163" stroke="none" d="
M 173.6 154.65
L 173.6 158.4 211.8 158.4 211.8 154.65 173.6 154.65 Z"/>
</g>

<g id="Layer0_0_MEMBER_2_FILL">
<path fill="#606163" stroke="none" d="
M 1829.95 680.3
Q 1829.25 679.95 1828.25 679.95 1827.4 679.95 1826.65 680.2 1825.9 680.45 1825.4 680.8
L 1826 682.3
Q 1826.35 682 1826.8 681.8 1827.3 681.55 1827.85 681.55 1828.6 681.55 1828.95 681.9 1829.3 682.3 1829.3 682.85 1829.25 683.35 1828.95 683.85 1828.65 684.4 1828 685.05 1827.4 685.7 1826.45 686.5
L 1825.3 687.55 1825.3 688.75 1831.45 688.75 1831.45 687.1 1828.2 687.1 1828.2 687.05 1829 686.4
Q 1829.65 685.85 1830.15 685.25 1830.7 684.65 1831 684 1831.3 683.4 1831.3 682.65 1831.3 681.85 1830.95 681.25 1830.6 680.65 1829.95 680.3
M 1826.5 660.9
L 1824.85 660.9 1822.5 662 1822.85 663.5 1824.5 662.7 1824.55 662.7 1824.55 669.6 1826.5 669.6 1826.5 660.9
M 1820.95 680.05
L 1818.65 681.15 1818.95 682.65 1820.65 681.9 1820.65 688.75 1822.65 688.75 1822.65 680.05 1820.95 680.05 Z"/>
</g>
</defs>

<g transform="matrix( 1, 0, 0, 1, -1814.05,-651.9) ">
<use xlink:href="#Layer0_0_MEMBER_0_FILL"/>
</g>

<g transform="matrix( 0.2933349609375, 0, 0, 0.29345703125, -45.9,-23) ">
<use xlink:href="#Layer0_0_MEMBER_1_FILL"/>
</g>

<g transform="matrix( 1, 0, 0, 1, -1814.05,-651.9) ">
<use xlink:href="#Layer0_0_MEMBER_2_FILL"/>
</g>
</svg>
