<?xml version="1.0" encoding="utf-8"?>
<!-- Generator: Adobe Illustrator 24.1.0, SVG Export Plug-In . SVG Version: 6.00 Build 0)  -->
<svg version="1.1" id="レイヤー_1" xmlns="http://www.w3.org/2000/svg" xmlns:xlink="http://www.w3.org/1999/xlink" x="0px"
	 y="0px" viewBox="0 0 500 500" style="enable-background:new 0 0 500 500;" xml:space="preserve">
<style type="text/css">
	.st0{fill:#666666;}
</style>
<path class="st0" d="M246.6,0C108.6,1.8-1.8,115.3,0,253.3s115.2,248.4,253.3,246.6c138-1.8,248.4-115.2,246.5-253.2
	C498,108.6,384.5-1.7,246.6,0z M274.2,83.3c25.4,0,33,14.8,33,31.6c0,21.1-16.9,40.5-45.7,40.5c-24.1,0-35.5-12.1-34.8-32.1
	C226.7,106.6,240.8,83.3,274.2,83.3z M209.1,406.3c-17.3,0-30.1-10.6-17.9-56.9l19.9-82.2c3.4-13.2,4-18.5,0-18.5
	c-5.2,0-27.7,9.1-41.1,18.1l-8.7-14.2c42.2-35.2,90.8-55.9,111.7-55.9c17.3,0,20.2,20.5,11.5,52.1l-22.8,86.5
	c-4,15.3-2.3,20.6,1.7,20.6c5.2,0,22.3-6.4,39.1-19.5l9.8,13.2C271.3,390.4,226.5,406.3,209.1,406.3z"/>
</svg>
